<svg width="40" height="40" viewBox="0 0 40 40" fill="none" xmlns="http://www.w3.org/2000/svg">
<mask id="path-1-inside-1_508_106" fill="white">
<path d="M40 20C40 23.6933 38.9989 27.1528 37.2532 30.122C33.7781 36.0326 27.3524 40 20 40C12.6476 40 6.22188 36.0326 2.74677 30.122C1.00111 27.1528 0 23.6933 0 20C0 16.3067 1.00111 12.8472 2.74677 9.87805C6.22188 3.96735 12.6476 0 20 0C27.3524 0 33.7781 3.96735 37.2532 9.87805C38.9989 12.8472 40 16.3067 40 20Z"/>
</mask>
<path d="M20 40L19.8702 40.4829C19.9604 40.5071 20.0556 40.5056 20.145 40.4785L20 40ZM20 0L20.1778 -0.467332C20.0652 -0.510147 19.941 -0.5109 19.8279 -0.469454L20 0ZM13.5253 10.6218C13.8014 10.6281 14.0302 10.4093 14.0365 10.1333C14.0427 9.85718 13.824 9.62832 13.5479 9.62208L13.5253 10.6218ZM26.4521 9.62208C26.176 9.62832 25.9573 9.85718 25.9635 10.1333C25.9698 10.4093 26.1986 10.6281 26.4747 10.6218L26.4521 9.62208ZM14 20.5C14.2761 20.5 14.5 20.2761 14.5 20C14.5 19.7239 14.2761 19.5 14 19.5V20.5ZM26 19.5C25.7239 19.5 25.5 19.7239 25.5 20C25.5 20.2761 25.7239 20.5 26 20.5V19.5ZM11.8293 30.622C12.1054 30.622 12.3293 30.3981 12.3293 30.122C12.3293 29.8458 12.1054 29.622 11.8293 29.622V30.622ZM28.5366 29.622C28.2604 29.622 28.0366 29.8458 28.0366 30.122C28.0366 30.3981 28.2604 30.622 28.5366 30.622L28.5366 29.622ZM19.5 5.5C19.5 5.77614 19.7239 6 20 6C20.2761 6 20.5 5.77614 20.5 5.5H19.5ZM20.5 34.5C20.5 34.2239 20.2761 34 20 34C19.7239 34 19.5 34.2239 19.5 34.5H20.5ZM19.8279 -0.469454C16.4123 0.7826 14.0079 3.82919 12.4873 7.63479C10.9646 11.4456 10.2993 16.0816 10.3995 20.6446C10.4997 25.2075 11.3661 29.7352 12.9394 33.3306C14.5058 36.9102 16.8192 39.6627 19.8702 40.4829L20.1298 39.5171C17.51 38.8129 15.3722 36.3956 13.8555 32.9297C12.3458 29.4797 11.4973 25.0864 11.3993 20.6227C11.3013 16.1591 11.9546 11.6629 13.4159 8.00584C14.8793 4.34358 17.1243 1.58664 20.1721 0.469454L19.8279 -0.469454ZM19.8222 0.467332C22.9747 1.66647 25.3107 4.43767 26.8452 8.06353C28.3785 11.6869 29.0876 16.1137 29.0123 20.5156C28.937 24.9177 28.0779 29.259 26.5075 32.7105C24.9333 36.1708 22.6799 38.6655 19.855 39.5215L20.145 40.4785C23.3567 39.5053 25.7832 36.7174 27.4178 33.1247C29.0563 29.5232 29.935 25.0413 30.0121 20.5327C30.0893 16.024 29.3654 11.4529 27.7661 7.6738C26.1679 3.89727 23.6717 0.861697 20.1778 -0.467332L19.8222 0.467332ZM2.73547 10.3779L13.5253 10.6218L13.5479 9.62208L2.75806 9.37818L2.73547 10.3779ZM37.2419 9.37818L26.4521 9.62208L26.4747 10.6218L37.2645 10.3779L37.2419 9.37818ZM0 20.5H14V19.5H0V20.5ZM40 19.5H26V20.5H40V19.5ZM2.74677 30.622H11.8293V29.622H2.74677V30.622ZM37.2532 29.622L28.5366 29.622L28.5366 30.622L37.2532 30.622L37.2532 29.622ZM19.5 0V5.5H20.5V0H19.5ZM20.5 40V34.5H19.5V40H20.5ZM2.74677 9.87805L3.60881 10.3849L2.74677 9.87805ZM37.2532 9.87805L36.3912 10.3849L37.2532 9.87805ZM2.74677 30.122L3.60881 29.6151L3.60881 29.6151L2.74677 30.122ZM37.2532 30.122L38.1153 30.6288L37.2532 30.122ZM1 20C1 16.4897 1.95101 13.2046 3.60881 10.3849L1.88472 9.37122C0.0512036 12.4898 -1 16.1236 -1 20H1ZM3.60881 10.3849C6.91171 4.7671 13.0165 1 20 1V-1C12.2788 -1 5.53205 3.1676 1.88472 9.37122L3.60881 10.3849ZM20 1C26.9835 1 33.0883 4.7671 36.3912 10.3849L38.1153 9.37122C34.4679 3.1676 27.7212 -1 20 -1V1ZM36.3912 10.3849C38.049 13.2046 39 16.4897 39 20H41C41 16.1236 39.9488 12.4898 38.1153 9.37122L36.3912 10.3849ZM20 39C13.0165 39 6.91171 35.2329 3.60881 29.6151L1.88472 30.6288C5.53205 36.8324 12.2788 41 20 41V39ZM3.60881 29.6151C1.95101 26.7954 1 23.5103 1 20H-1C-1 23.8764 0.0512034 27.5102 1.88472 30.6288L3.60881 29.6151ZM39 20C39 23.5103 38.049 26.7954 36.3912 29.6151L38.1153 30.6288C39.9488 27.5102 41 23.8763 41 20H39ZM36.3912 29.6151C33.0883 35.2329 26.9835 39 20 39V41C27.7212 41 34.4679 36.8324 38.1153 30.6288L36.3912 29.6151Z" fill="#538EDC" mask="url(#path-1-inside-1_508_106)"/>
<path d="M17.2295 18.655L17.3025 18.2887L16.9718 18.1148C16.1134 17.6635 15.504 17.0812 15.1052 16.3771C14.705 15.6703 14.5 14.8106 14.5 13.7814C14.5 10.8819 16.9448 8.5 20 8.5C23.0552 8.5 25.5 10.8819 25.5 13.7814C25.5 15.7853 24.6001 17.2199 22.8978 18.1148L22.5671 18.2887L22.6401 18.655L24.9993 30.5H14.8703L17.2295 18.655Z" stroke="#538EDC"/>
</svg>
